<?xml version="1.0" encoding="utf-8" standalone="no"?>
<!DOCTYPE svg PUBLIC "-//W3C//DTD SVG 1.1//EN"
  "http://www.w3.org/Graphics/SVG/1.1/DTD/svg11.dtd">
<svg xmlns:xlink="http://www.w3.org/1999/xlink" width="615.34375pt" height="392.514375pt" viewBox="0 0 615.34375 392.514375" xmlns="http://www.w3.org/2000/svg" version="1.1">
 <metadata>
  <rdf:RDF xmlns:dc="http://purl.org/dc/elements/1.1/" xmlns:cc="http://creativecommons.org/ns#" xmlns:rdf="http://www.w3.org/1999/02/22-rdf-syntax-ns#">
   <cc:Work>
    <dc:type rdf:resource="http://purl.org/dc/dcmitype/StillImage"/>
    <dc:date>2025-03-23T18:49:31.798997</dc:date>
    <dc:format>image/svg+xml</dc:format>
    <dc:creator>
     <cc:Agent>
      <dc:title>Matplotlib v3.9.4, https://matplotlib.org/</dc:title>
     </cc:Agent>
    </dc:creator>
   </cc:Work>
  </rdf:RDF>
 </metadata>
 <defs>
  <style type="text/css">*{stroke-linejoin: round; stroke-linecap: butt}</style>
 </defs>
 <g id="figure_1">
  <g id="patch_1">
   <path d="M 0 392.514375 
L 615.34375 392.514375 
L 615.34375 0 
L 0 0 
z
" style="fill: #ffffff"/>
  </g>
  <g id="axes_1">
   <g id="patch_2">
    <path d="M 50.14375 354.958125 
L 608.14375 354.958125 
L 608.14375 22.318125 
L 50.14375 22.318125 
z
" style="fill: #ffffff"/>
   </g>
   <g id="matplotlib.axis_1">
    <g id="xtick_1">
     <g id="line2d_1">
      <defs>
       <path id="m0e8a9ae078" d="M 0 0 
L 0 3.5 
" style="stroke: #000000; stroke-width: 0.8"/>
      </defs>
      <g>
       <use xlink:href="#m0e8a9ae078" x="103.908625" y="354.958125" style="stroke: #000000; stroke-width: 0.8"/>
      </g>
     </g>
     <g id="text_1">
      <!-- 20 -->
      <g transform="translate(97.546125 369.556562) scale(0.1 -0.1)">
       <defs>
        <path id="DejaVuSans-32" d="M 1228 531 
L 3431 531 
L 3431 0 
L 469 0 
L 469 531 
Q 828 903 1448 1529 
Q 2069 2156 2228 2338 
Q 2531 2678 2651 2914 
Q 2772 3150 2772 3378 
Q 2772 3750 2511 3984 
Q 2250 4219 1831 4219 
Q 1534 4219 1204 4116 
Q 875 4013 500 3803 
L 500 4441 
Q 881 4594 1212 4672 
Q 1544 4750 1819 4750 
Q 2544 4750 2975 4387 
Q 3406 4025 3406 3419 
Q 3406 3131 3298 2873 
Q 3191 2616 2906 2266 
Q 2828 2175 2409 1742 
Q 1991 1309 1228 531 
z
" transform="scale(0.015625)"/>
        <path id="DejaVuSans-30" d="M 2034 4250 
Q 1547 4250 1301 3770 
Q 1056 3291 1056 2328 
Q 1056 1369 1301 889 
Q 1547 409 2034 409 
Q 2525 409 2770 889 
Q 3016 1369 3016 2328 
Q 3016 3291 2770 3770 
Q 2525 4250 2034 4250 
z
M 2034 4750 
Q 2819 4750 3233 4129 
Q 3647 3509 3647 2328 
Q 3647 1150 3233 529 
Q 2819 -91 2034 -91 
Q 1250 -91 836 529 
Q 422 1150 422 2328 
Q 422 3509 836 4129 
Q 1250 4750 2034 4750 
z
" transform="scale(0.015625)"/>
       </defs>
       <use xlink:href="#DejaVuSans-32"/>
       <use xlink:href="#DejaVuSans-30" x="63.623047"/>
      </g>
     </g>
    </g>
    <g id="xtick_2">
     <g id="line2d_2">
      <g>
       <use xlink:href="#m0e8a9ae078" x="218.618524" y="354.958125" style="stroke: #000000; stroke-width: 0.8"/>
      </g>
     </g>
     <g id="text_2">
      <!-- 30 -->
      <g transform="translate(212.256024 369.556562) scale(0.1 -0.1)">
       <defs>
        <path id="DejaVuSans-33" d="M 2597 2516 
Q 3050 2419 3304 2112 
Q 3559 1806 3559 1356 
Q 3559 666 3084 287 
Q 2609 -91 1734 -91 
Q 1441 -91 1130 -33 
Q 819 25 488 141 
L 488 750 
Q 750 597 1062 519 
Q 1375 441 1716 441 
Q 2309 441 2620 675 
Q 2931 909 2931 1356 
Q 2931 1769 2642 2001 
Q 2353 2234 1838 2234 
L 1294 2234 
L 1294 2753 
L 1863 2753 
Q 2328 2753 2575 2939 
Q 2822 3125 2822 3475 
Q 2822 3834 2567 4026 
Q 2313 4219 1838 4219 
Q 1578 4219 1281 4162 
Q 984 4106 628 3988 
L 628 4550 
Q 988 4650 1302 4700 
Q 1616 4750 1894 4750 
Q 2613 4750 3031 4423 
Q 3450 4097 3450 3541 
Q 3450 3153 3228 2886 
Q 3006 2619 2597 2516 
z
" transform="scale(0.015625)"/>
       </defs>
       <use xlink:href="#DejaVuSans-33"/>
       <use xlink:href="#DejaVuSans-30" x="63.623047"/>
      </g>
     </g>
    </g>
    <g id="xtick_3">
     <g id="line2d_3">
      <g>
       <use xlink:href="#m0e8a9ae078" x="333.328424" y="354.958125" style="stroke: #000000; stroke-width: 0.8"/>
      </g>
     </g>
     <g id="text_3">
      <!-- 40 -->
      <g transform="translate(326.965924 369.556562) scale(0.1 -0.1)">
       <defs>
        <path id="DejaVuSans-34" d="M 2419 4116 
L 825 1625 
L 2419 1625 
L 2419 4116 
z
M 2253 4666 
L 3047 4666 
L 3047 1625 
L 3713 1625 
L 3713 1100 
L 3047 1100 
L 3047 0 
L 2419 0 
L 2419 1100 
L 313 1100 
L 313 1709 
L 2253 4666 
z
" transform="scale(0.015625)"/>
       </defs>
       <use xlink:href="#DejaVuSans-34"/>
       <use xlink:href="#DejaVuSans-30" x="63.623047"/>
      </g>
     </g>
    </g>
    <g id="xtick_4">
     <g id="line2d_4">
      <g>
       <use xlink:href="#m0e8a9ae078" x="448.038323" y="354.958125" style="stroke: #000000; stroke-width: 0.8"/>
      </g>
     </g>
     <g id="text_4">
      <!-- 50 -->
      <g transform="translate(441.675823 369.556562) scale(0.1 -0.1)">
       <defs>
        <path id="DejaVuSans-35" d="M 691 4666 
L 3169 4666 
L 3169 4134 
L 1269 4134 
L 1269 2991 
Q 1406 3038 1543 3061 
Q 1681 3084 1819 3084 
Q 2600 3084 3056 2656 
Q 3513 2228 3513 1497 
Q 3513 744 3044 326 
Q 2575 -91 1722 -91 
Q 1428 -91 1123 -41 
Q 819 9 494 109 
L 494 744 
Q 775 591 1075 516 
Q 1375 441 1709 441 
Q 2250 441 2565 725 
Q 2881 1009 2881 1497 
Q 2881 1984 2565 2268 
Q 2250 2553 1709 2553 
Q 1456 2553 1204 2497 
Q 953 2441 691 2322 
L 691 4666 
z
" transform="scale(0.015625)"/>
       </defs>
       <use xlink:href="#DejaVuSans-35"/>
       <use xlink:href="#DejaVuSans-30" x="63.623047"/>
      </g>
     </g>
    </g>
    <g id="xtick_5">
     <g id="line2d_5">
      <g>
       <use xlink:href="#m0e8a9ae078" x="562.748223" y="354.958125" style="stroke: #000000; stroke-width: 0.8"/>
      </g>
     </g>
     <g id="text_5">
      <!-- 60 -->
      <g transform="translate(556.385723 369.556562) scale(0.1 -0.1)">
       <defs>
        <path id="DejaVuSans-36" d="M 2113 2584 
Q 1688 2584 1439 2293 
Q 1191 2003 1191 1497 
Q 1191 994 1439 701 
Q 1688 409 2113 409 
Q 2538 409 2786 701 
Q 3034 994 3034 1497 
Q 3034 2003 2786 2293 
Q 2538 2584 2113 2584 
z
M 3366 4563 
L 3366 3988 
Q 3128 4100 2886 4159 
Q 2644 4219 2406 4219 
Q 1781 4219 1451 3797 
Q 1122 3375 1075 2522 
Q 1259 2794 1537 2939 
Q 1816 3084 2150 3084 
Q 2853 3084 3261 2657 
Q 3669 2231 3669 1497 
Q 3669 778 3244 343 
Q 2819 -91 2113 -91 
Q 1303 -91 875 529 
Q 447 1150 447 2328 
Q 447 3434 972 4092 
Q 1497 4750 2381 4750 
Q 2619 4750 2861 4703 
Q 3103 4656 3366 4563 
z
" transform="scale(0.015625)"/>
       </defs>
       <use xlink:href="#DejaVuSans-36"/>
       <use xlink:href="#DejaVuSans-30" x="63.623047"/>
      </g>
     </g>
    </g>
    <g id="text_6">
     <!-- Q-value -->
     <g transform="translate(309.739844 383.234687) scale(0.1 -0.1)">
      <defs>
       <path id="DejaVuSans-51" d="M 2522 4238 
Q 1834 4238 1429 3725 
Q 1025 3213 1025 2328 
Q 1025 1447 1429 934 
Q 1834 422 2522 422 
Q 3209 422 3611 934 
Q 4013 1447 4013 2328 
Q 4013 3213 3611 3725 
Q 3209 4238 2522 4238 
z
M 3406 84 
L 4238 -825 
L 3475 -825 
L 2784 -78 
Q 2681 -84 2626 -87 
Q 2572 -91 2522 -91 
Q 1538 -91 948 567 
Q 359 1225 359 2328 
Q 359 3434 948 4092 
Q 1538 4750 2522 4750 
Q 3503 4750 4090 4092 
Q 4678 3434 4678 2328 
Q 4678 1516 4351 937 
Q 4025 359 3406 84 
z
" transform="scale(0.015625)"/>
       <path id="DejaVuSans-2d" d="M 313 2009 
L 1997 2009 
L 1997 1497 
L 313 1497 
L 313 2009 
z
" transform="scale(0.015625)"/>
       <path id="DejaVuSans-76" d="M 191 3500 
L 800 3500 
L 1894 563 
L 2988 3500 
L 3597 3500 
L 2284 0 
L 1503 0 
L 191 3500 
z
" transform="scale(0.015625)"/>
       <path id="DejaVuSans-61" d="M 2194 1759 
Q 1497 1759 1228 1600 
Q 959 1441 959 1056 
Q 959 750 1161 570 
Q 1363 391 1709 391 
Q 2188 391 2477 730 
Q 2766 1069 2766 1631 
L 2766 1759 
L 2194 1759 
z
M 3341 1997 
L 3341 0 
L 2766 0 
L 2766 531 
Q 2569 213 2275 61 
Q 1981 -91 1556 -91 
Q 1019 -91 701 211 
Q 384 513 384 1019 
Q 384 1609 779 1909 
Q 1175 2209 1959 2209 
L 2766 2209 
L 2766 2266 
Q 2766 2663 2505 2880 
Q 2244 3097 1772 3097 
Q 1472 3097 1187 3025 
Q 903 2953 641 2809 
L 641 3341 
Q 956 3463 1253 3523 
Q 1550 3584 1831 3584 
Q 2591 3584 2966 3190 
Q 3341 2797 3341 1997 
z
" transform="scale(0.015625)"/>
       <path id="DejaVuSans-6c" d="M 603 4863 
L 1178 4863 
L 1178 0 
L 603 0 
L 603 4863 
z
" transform="scale(0.015625)"/>
       <path id="DejaVuSans-75" d="M 544 1381 
L 544 3500 
L 1119 3500 
L 1119 1403 
Q 1119 906 1312 657 
Q 1506 409 1894 409 
Q 2359 409 2629 706 
Q 2900 1003 2900 1516 
L 2900 3500 
L 3475 3500 
L 3475 0 
L 2900 0 
L 2900 538 
Q 2691 219 2414 64 
Q 2138 -91 1772 -91 
Q 1169 -91 856 284 
Q 544 659 544 1381 
z
M 1991 3584 
L 1991 3584 
z
" transform="scale(0.015625)"/>
       <path id="DejaVuSans-65" d="M 3597 1894 
L 3597 1613 
L 953 1613 
Q 991 1019 1311 708 
Q 1631 397 2203 397 
Q 2534 397 2845 478 
Q 3156 559 3463 722 
L 3463 178 
Q 3153 47 2828 -22 
Q 2503 -91 2169 -91 
Q 1331 -91 842 396 
Q 353 884 353 1716 
Q 353 2575 817 3079 
Q 1281 3584 2069 3584 
Q 2775 3584 3186 3129 
Q 3597 2675 3597 1894 
z
M 3022 2063 
Q 3016 2534 2758 2815 
Q 2500 3097 2075 3097 
Q 1594 3097 1305 2825 
Q 1016 2553 972 2059 
L 3022 2063 
z
" transform="scale(0.015625)"/>
      </defs>
      <use xlink:href="#DejaVuSans-51"/>
      <use xlink:href="#DejaVuSans-2d" x="81.460938"/>
      <use xlink:href="#DejaVuSans-76" x="114.919922"/>
      <use xlink:href="#DejaVuSans-61" x="174.099609"/>
      <use xlink:href="#DejaVuSans-6c" x="235.378906"/>
      <use xlink:href="#DejaVuSans-75" x="263.162109"/>
      <use xlink:href="#DejaVuSans-65" x="326.541016"/>
     </g>
    </g>
   </g>
   <g id="matplotlib.axis_2">
    <g id="ytick_1">
     <g id="line2d_6">
      <defs>
       <path id="ma9cc4a39f5" d="M 0 0 
L -3.5 0 
" style="stroke: #000000; stroke-width: 0.8"/>
      </defs>
      <g>
       <use xlink:href="#ma9cc4a39f5" x="50.14375" y="354.958125" style="stroke: #000000; stroke-width: 0.8"/>
      </g>
     </g>
     <g id="text_7">
      <!-- 0.00 -->
      <g transform="translate(20.878125 358.757344) scale(0.1 -0.1)">
       <defs>
        <path id="DejaVuSans-2e" d="M 684 794 
L 1344 794 
L 1344 0 
L 684 0 
L 684 794 
z
" transform="scale(0.015625)"/>
       </defs>
       <use xlink:href="#DejaVuSans-30"/>
       <use xlink:href="#DejaVuSans-2e" x="63.623047"/>
       <use xlink:href="#DejaVuSans-30" x="95.410156"/>
       <use xlink:href="#DejaVuSans-30" x="159.033203"/>
      </g>
     </g>
    </g>
    <g id="ytick_2">
     <g id="line2d_7">
      <g>
       <use xlink:href="#ma9cc4a39f5" x="50.14375" y="292.529273" style="stroke: #000000; stroke-width: 0.8"/>
      </g>
     </g>
     <g id="text_8">
      <!-- 0.02 -->
      <g transform="translate(20.878125 296.328492) scale(0.1 -0.1)">
       <use xlink:href="#DejaVuSans-30"/>
       <use xlink:href="#DejaVuSans-2e" x="63.623047"/>
       <use xlink:href="#DejaVuSans-30" x="95.410156"/>
       <use xlink:href="#DejaVuSans-32" x="159.033203"/>
      </g>
     </g>
    </g>
    <g id="ytick_3">
     <g id="line2d_8">
      <g>
       <use xlink:href="#ma9cc4a39f5" x="50.14375" y="230.100422" style="stroke: #000000; stroke-width: 0.8"/>
      </g>
     </g>
     <g id="text_9">
      <!-- 0.04 -->
      <g transform="translate(20.878125 233.89964) scale(0.1 -0.1)">
       <use xlink:href="#DejaVuSans-30"/>
       <use xlink:href="#DejaVuSans-2e" x="63.623047"/>
       <use xlink:href="#DejaVuSans-30" x="95.410156"/>
       <use xlink:href="#DejaVuSans-34" x="159.033203"/>
      </g>
     </g>
    </g>
    <g id="ytick_4">
     <g id="line2d_9">
      <g>
       <use xlink:href="#ma9cc4a39f5" x="50.14375" y="167.67157" style="stroke: #000000; stroke-width: 0.8"/>
      </g>
     </g>
     <g id="text_10">
      <!-- 0.06 -->
      <g transform="translate(20.878125 171.470789) scale(0.1 -0.1)">
       <use xlink:href="#DejaVuSans-30"/>
       <use xlink:href="#DejaVuSans-2e" x="63.623047"/>
       <use xlink:href="#DejaVuSans-30" x="95.410156"/>
       <use xlink:href="#DejaVuSans-36" x="159.033203"/>
      </g>
     </g>
    </g>
    <g id="ytick_5">
     <g id="line2d_10">
      <g>
       <use xlink:href="#ma9cc4a39f5" x="50.14375" y="105.242718" style="stroke: #000000; stroke-width: 0.8"/>
      </g>
     </g>
     <g id="text_11">
      <!-- 0.08 -->
      <g transform="translate(20.878125 109.041937) scale(0.1 -0.1)">
       <defs>
        <path id="DejaVuSans-38" d="M 2034 2216 
Q 1584 2216 1326 1975 
Q 1069 1734 1069 1313 
Q 1069 891 1326 650 
Q 1584 409 2034 409 
Q 2484 409 2743 651 
Q 3003 894 3003 1313 
Q 3003 1734 2745 1975 
Q 2488 2216 2034 2216 
z
M 1403 2484 
Q 997 2584 770 2862 
Q 544 3141 544 3541 
Q 544 4100 942 4425 
Q 1341 4750 2034 4750 
Q 2731 4750 3128 4425 
Q 3525 4100 3525 3541 
Q 3525 3141 3298 2862 
Q 3072 2584 2669 2484 
Q 3125 2378 3379 2068 
Q 3634 1759 3634 1313 
Q 3634 634 3220 271 
Q 2806 -91 2034 -91 
Q 1263 -91 848 271 
Q 434 634 434 1313 
Q 434 1759 690 2068 
Q 947 2378 1403 2484 
z
M 1172 3481 
Q 1172 3119 1398 2916 
Q 1625 2713 2034 2713 
Q 2441 2713 2670 2916 
Q 2900 3119 2900 3481 
Q 2900 3844 2670 4047 
Q 2441 4250 2034 4250 
Q 1625 4250 1398 4047 
Q 1172 3844 1172 3481 
z
" transform="scale(0.015625)"/>
       </defs>
       <use xlink:href="#DejaVuSans-30"/>
       <use xlink:href="#DejaVuSans-2e" x="63.623047"/>
       <use xlink:href="#DejaVuSans-30" x="95.410156"/>
       <use xlink:href="#DejaVuSans-38" x="159.033203"/>
      </g>
     </g>
    </g>
    <g id="ytick_6">
     <g id="line2d_11">
      <g>
       <use xlink:href="#ma9cc4a39f5" x="50.14375" y="42.813866" style="stroke: #000000; stroke-width: 0.8"/>
      </g>
     </g>
     <g id="text_12">
      <!-- 0.10 -->
      <g transform="translate(20.878125 46.613085) scale(0.1 -0.1)">
       <defs>
        <path id="DejaVuSans-31" d="M 794 531 
L 1825 531 
L 1825 4091 
L 703 3866 
L 703 4441 
L 1819 4666 
L 2450 4666 
L 2450 531 
L 3481 531 
L 3481 0 
L 794 0 
L 794 531 
z
" transform="scale(0.015625)"/>
       </defs>
       <use xlink:href="#DejaVuSans-30"/>
       <use xlink:href="#DejaVuSans-2e" x="63.623047"/>
       <use xlink:href="#DejaVuSans-31" x="95.410156"/>
       <use xlink:href="#DejaVuSans-30" x="159.033203"/>
      </g>
     </g>
    </g>
    <g id="text_13">
     <!-- Density -->
     <g transform="translate(14.798437 207.646719) rotate(-90) scale(0.1 -0.1)">
      <defs>
       <path id="DejaVuSans-44" d="M 1259 4147 
L 1259 519 
L 2022 519 
Q 2988 519 3436 956 
Q 3884 1394 3884 2338 
Q 3884 3275 3436 3711 
Q 2988 4147 2022 4147 
L 1259 4147 
z
M 628 4666 
L 1925 4666 
Q 3281 4666 3915 4102 
Q 4550 3538 4550 2338 
Q 4550 1131 3912 565 
Q 3275 0 1925 0 
L 628 0 
L 628 4666 
z
" transform="scale(0.015625)"/>
       <path id="DejaVuSans-6e" d="M 3513 2113 
L 3513 0 
L 2938 0 
L 2938 2094 
Q 2938 2591 2744 2837 
Q 2550 3084 2163 3084 
Q 1697 3084 1428 2787 
Q 1159 2491 1159 1978 
L 1159 0 
L 581 0 
L 581 3500 
L 1159 3500 
L 1159 2956 
Q 1366 3272 1645 3428 
Q 1925 3584 2291 3584 
Q 2894 3584 3203 3211 
Q 3513 2838 3513 2113 
z
" transform="scale(0.015625)"/>
       <path id="DejaVuSans-73" d="M 2834 3397 
L 2834 2853 
Q 2591 2978 2328 3040 
Q 2066 3103 1784 3103 
Q 1356 3103 1142 2972 
Q 928 2841 928 2578 
Q 928 2378 1081 2264 
Q 1234 2150 1697 2047 
L 1894 2003 
Q 2506 1872 2764 1633 
Q 3022 1394 3022 966 
Q 3022 478 2636 193 
Q 2250 -91 1575 -91 
Q 1294 -91 989 -36 
Q 684 19 347 128 
L 347 722 
Q 666 556 975 473 
Q 1284 391 1588 391 
Q 1994 391 2212 530 
Q 2431 669 2431 922 
Q 2431 1156 2273 1281 
Q 2116 1406 1581 1522 
L 1381 1569 
Q 847 1681 609 1914 
Q 372 2147 372 2553 
Q 372 3047 722 3315 
Q 1072 3584 1716 3584 
Q 2034 3584 2315 3537 
Q 2597 3491 2834 3397 
z
" transform="scale(0.015625)"/>
       <path id="DejaVuSans-69" d="M 603 3500 
L 1178 3500 
L 1178 0 
L 603 0 
L 603 3500 
z
M 603 4863 
L 1178 4863 
L 1178 4134 
L 603 4134 
L 603 4863 
z
" transform="scale(0.015625)"/>
       <path id="DejaVuSans-74" d="M 1172 4494 
L 1172 3500 
L 2356 3500 
L 2356 3053 
L 1172 3053 
L 1172 1153 
Q 1172 725 1289 603 
Q 1406 481 1766 481 
L 2356 481 
L 2356 0 
L 1766 0 
Q 1100 0 847 248 
Q 594 497 594 1153 
L 594 3053 
L 172 3053 
L 172 3500 
L 594 3500 
L 594 4494 
L 1172 4494 
z
" transform="scale(0.015625)"/>
       <path id="DejaVuSans-79" d="M 2059 -325 
Q 1816 -950 1584 -1140 
Q 1353 -1331 966 -1331 
L 506 -1331 
L 506 -850 
L 844 -850 
Q 1081 -850 1212 -737 
Q 1344 -625 1503 -206 
L 1606 56 
L 191 3500 
L 800 3500 
L 1894 763 
L 2988 3500 
L 3597 3500 
L 2059 -325 
z
" transform="scale(0.015625)"/>
      </defs>
      <use xlink:href="#DejaVuSans-44"/>
      <use xlink:href="#DejaVuSans-65" x="77.001953"/>
      <use xlink:href="#DejaVuSans-6e" x="138.525391"/>
      <use xlink:href="#DejaVuSans-73" x="201.904297"/>
      <use xlink:href="#DejaVuSans-69" x="254.003906"/>
      <use xlink:href="#DejaVuSans-74" x="281.787109"/>
      <use xlink:href="#DejaVuSans-79" x="320.996094"/>
     </g>
    </g>
   </g>
   <g id="line2d_12">
    <path d="M 91.9142 354.888515 
L 100.878735 354.690824 
L 107.602136 354.320703 
L 112.084403 353.8917 
L 116.566671 353.260936 
L 121.048938 352.38309 
L 125.531205 351.22211 
L 130.013472 349.753111 
L 134.49574 347.955316 
L 138.978007 345.793104 
L 143.460274 343.186603 
L 145.701408 341.671586 
L 147.942542 339.979359 
L 150.183675 338.074739 
L 152.424809 335.916312 
L 154.665943 333.457383 
L 156.907076 330.64759 
L 159.14821 327.435159 
L 161.389344 323.769736 
L 163.630477 319.605618 
L 165.871611 314.905197 
L 168.112745 309.642329 
L 170.353878 303.805338 
L 172.595012 297.399356 
L 174.836146 290.44771 
L 177.077279 282.992183 
L 181.559547 266.821488 
L 186.041814 249.521485 
L 195.006348 214.494486 
L 199.488616 198.028314 
L 203.970883 182.752653 
L 208.45315 168.746606 
L 212.935418 155.923036 
L 217.417685 144.110922 
L 221.899952 133.115565 
L 226.38222 122.738828 
L 233.105621 107.869395 
L 242.070155 88.172726 
L 255.516957 57.881572 
L 257.758091 53.242664 
L 259.999224 48.971938 
L 262.240358 45.203516 
L 264.481492 42.083783 
L 266.722625 39.766539 
L 268.963759 38.407098 
L 271.204893 38.155514 
L 273.446026 39.149202 
L 275.68716 41.505356 
L 277.928294 45.313612 
L 280.169427 50.62949 
L 282.410561 57.469141 
L 284.651695 65.805893 
L 286.892828 75.568956 
L 289.133962 86.644517 
L 291.375096 98.879245 
L 293.616229 112.086014 
L 298.098497 140.545041 
L 307.063031 199.115915 
L 309.304165 212.842681 
L 311.545299 225.858891 
L 313.786432 238.046244 
L 316.027566 249.320171 
L 318.268699 259.629169 
L 320.509833 268.952719 
L 322.750967 277.298099 
L 324.9921 284.6964 
L 327.233234 291.198012 
L 329.474368 296.867893 
L 331.715501 301.780835 
L 333.956635 306.016971 
L 336.197769 309.657691 
L 338.438902 312.78214 
L 340.680036 315.464416 
L 342.92117 317.771549 
L 345.162303 319.762314 
L 347.403437 321.486841 
L 349.644571 322.98698 
L 351.885704 324.297272 
L 354.126838 325.446364 
L 358.609105 327.356052 
L 363.091373 328.889323 
L 376.538175 332.966619 
L 381.020442 334.683101 
L 385.502709 336.708489 
L 392.22611 340.168501 
L 398.949511 343.629798 
L 403.431778 345.604876 
L 405.672912 346.430436 
L 407.914046 347.130882 
L 410.155179 347.700572 
L 412.396313 348.139883 
L 414.637447 348.454993 
L 419.119714 348.762519 
L 423.601981 348.759406 
L 437.048783 348.448141 
L 443.772184 348.676951 
L 454.977852 349.255657 
L 459.46012 349.310016 
L 466.183521 349.114358 
L 477.389189 348.654562 
L 481.871456 348.727472 
L 486.353724 349.050456 
L 490.835991 349.619151 
L 497.559392 350.798992 
L 508.76506 352.874573 
L 515.488461 353.795693 
L 522.211862 354.387313 
L 528.935263 354.71149 
L 537.899798 354.892114 
L 537.899798 354.892114 
" clip-path="url(#p4a00510fdc)" style="fill: none; stroke: #1f77b4; stroke-width: 1.5; stroke-linecap: square"/>
   </g>
   <g id="line2d_13">
    <path d="M 75.507386 354.895732 
L 85.4308 354.730653 
L 92.873361 354.427807 
L 97.835068 354.077706 
L 102.796775 353.560264 
L 107.758482 352.832521 
L 112.720189 351.856807 
L 117.681896 350.605959 
L 122.643603 349.064987 
L 127.60531 347.225982 
L 132.567016 345.074003 
L 137.528723 342.564014 
L 140.009577 341.145482 
L 142.49043 339.592528 
L 144.971284 337.878767 
L 147.452137 335.971512 
L 149.932991 333.831841 
L 152.413844 331.415132 
L 154.894698 328.672112 
L 157.375551 325.550448 
L 159.856405 321.996869 
L 162.337258 317.95975 
L 164.818112 313.392067 
L 167.298965 308.254549 
L 169.779819 302.518855 
L 172.260672 296.170545 
L 174.741526 289.211634 
L 177.222379 281.662494 
L 179.703233 273.562947 
L 182.184086 264.972394 
L 187.145793 246.647501 
L 199.550061 199.367654 
L 202.030914 190.651873 
L 204.511767 182.458837 
L 206.992621 174.887468 
L 209.473474 168.02235 
L 211.954328 161.932268 
L 214.435181 156.669336 
L 216.916035 152.268616 
L 219.396888 148.748067 
L 221.877742 146.108686 
L 224.358595 144.334727 
L 226.839449 143.393935 
L 229.320302 143.23778 
L 231.801156 143.801739 
L 234.282009 145.005743 
L 236.762863 146.754897 
L 239.243716 148.940642 
L 241.72457 151.442485 
L 249.16713 159.51561 
L 251.647984 161.936141 
L 254.128837 163.998171 
L 256.609691 165.581701 
L 259.090544 166.582811 
L 261.571398 166.918162 
L 264.052251 166.528918 
L 266.533105 165.383878 
L 269.013958 163.481653 
L 271.494812 160.851791 
L 273.975665 157.554793 
L 276.456518 153.681034 
L 278.937372 149.348637 
L 283.899079 139.899649 
L 288.860786 130.568767 
L 291.341639 126.42284 
L 293.822493 122.880619 
L 296.303346 120.126225 
L 298.7842 118.328641 
L 301.265053 117.63519 
L 303.745907 118.165458 
L 306.22676 120.00595 
L 308.707614 123.205825 
L 311.188467 127.773996 
L 313.669321 133.677879 
L 316.150174 140.84397 
L 318.631028 149.160345 
L 321.111881 158.481036 
L 323.592735 168.632091 
L 328.554442 190.635161 
L 335.997002 224.793406 
L 340.958709 246.150041 
L 343.439563 255.971659 
L 345.920416 265.097794 
L 348.401269 273.473693 
L 350.882123 281.073705 
L 353.362976 287.898283 
L 355.84383 293.970042 
L 358.324683 299.329276 
L 360.805537 304.029322 
L 363.28639 308.132107 
L 365.767244 311.704149 
L 368.248097 314.813176 
L 370.728951 317.525469 
L 373.209804 319.903905 
L 375.690658 322.006655 
L 378.171511 323.886406 
L 380.652365 325.589986 
L 385.614072 328.626098 
L 393.056632 332.689107 
L 405.4609 339.071489 
L 410.422607 341.468242 
L 415.384314 343.645176 
L 420.34602 345.496614 
L 425.307727 346.944716 
L 430.269434 347.962428 
L 435.231141 348.581773 
L 440.192848 348.885812 
L 447.635409 348.998364 
L 460.039676 349.075093 
L 482.367358 349.435666 
L 499.733332 349.324229 
L 504.695039 349.505296 
L 509.656746 349.860126 
L 517.099306 350.692174 
L 539.426988 353.638907 
L 546.869548 354.245595 
L 554.312109 354.614849 
L 564.235523 354.849657 
L 569.197229 354.901646 
L 569.197229 354.901646 
" clip-path="url(#p4a00510fdc)" style="fill: none; stroke: #ff7f0e; stroke-width: 1.5; stroke-linecap: square"/>
   </g>
   <g id="line2d_14">
    <path d="M 79.751109 354.894941 
L 89.862244 354.723262 
L 97.445596 354.393858 
L 102.501164 353.993369 
L 107.556732 353.366705 
L 112.6123 352.419381 
L 115.140084 351.789175 
L 117.667868 351.031934 
L 120.195652 350.128516 
L 122.723436 349.058077 
L 125.25122 347.798133 
L 127.779004 346.324697 
L 130.306788 344.612495 
L 132.834571 342.635291 
L 135.362355 340.366322 
L 137.890139 337.778858 
L 140.417923 334.846896 
L 142.945707 331.545964 
L 145.473491 327.854022 
L 148.001275 323.752446 
L 150.529059 319.227031 
L 153.056843 314.268997 
L 155.584627 308.875924 
L 158.112411 303.052585 
L 160.640195 296.811623 
L 163.167979 290.174022 
L 165.695763 283.169334 
L 170.751331 268.219225 
L 175.806899 252.359899 
L 188.445818 212.137003 
L 193.501386 197.234583 
L 196.02917 190.26477 
L 198.556954 183.66438 
L 201.084738 177.454237 
L 203.612522 171.641779 
L 206.140306 166.221043 
L 208.66809 161.173325 
L 211.195874 156.468508 
L 213.723658 152.066968 
L 218.779226 143.982054 
L 223.834793 136.506586 
L 233.945929 121.883316 
L 241.529281 110.376158 
L 249.112633 98.684136 
L 251.640417 94.976325 
L 254.168201 91.498678 
L 256.695985 88.355248 
L 259.223769 85.662982 
L 261.751553 83.548746 
L 264.279337 82.145272 
L 266.807121 81.586092 
L 269.334904 81.999629 
L 271.862688 83.50274 
L 274.390472 86.194081 
L 276.918256 90.147757 
L 279.44604 95.407728 
L 281.973824 101.983419 
L 284.501608 109.846932 
L 287.029392 118.932129 
L 289.557176 129.135726 
L 292.08496 140.320394 
L 294.612744 152.319675 
L 299.668312 177.990307 
L 307.251664 217.554454 
L 312.307232 242.334456 
L 314.835015 253.758292 
L 317.362799 264.381405 
L 319.890583 274.122693 
L 322.418367 282.930005 
L 324.946151 290.778582 
L 327.473935 297.66852 
L 330.001719 303.621586 
L 332.529503 308.677644 
L 335.057287 312.890969 
L 337.585071 316.326678 
L 340.112855 319.057418 
L 342.640639 321.160451 
L 345.168423 322.71516 
L 347.696207 323.800987 
L 350.223991 324.495768 
L 352.751775 324.874402 
L 355.279559 325.007785 
L 357.807343 324.961938 
L 362.86291 324.568009 
L 370.446262 323.931254 
L 375.50183 323.859573 
L 378.029614 323.984001 
L 380.557398 324.223447 
L 385.612966 325.038302 
L 390.668534 326.246716 
L 395.724102 327.754726 
L 403.307454 330.373239 
L 413.418589 334.198518 
L 428.585293 340.043453 
L 433.640861 341.824209 
L 438.696429 343.416034 
L 443.751997 344.774964 
L 448.807565 345.889655 
L 453.863132 346.782953 
L 461.446484 347.810663 
L 469.029836 348.60145 
L 476.613188 349.218935 
L 484.19654 349.620807 
L 491.779892 349.754357 
L 501.891027 349.623935 
L 509.474379 349.552016 
L 514.529947 349.645377 
L 519.585515 349.903165 
L 524.641083 350.331433 
L 532.224435 351.224222 
L 547.391138 353.18969 
L 554.97449 353.926487 
L 562.557842 354.419922 
L 570.141194 354.707131 
L 582.780114 354.903286 
L 582.780114 354.903286 
" clip-path="url(#p4a00510fdc)" style="fill: none; stroke: #2ca02c; stroke-width: 1.5; stroke-linecap: square"/>
   </g>
   <g id="patch_3">
    <path d="M 50.14375 354.958125 
L 50.14375 22.318125 
" style="fill: none; stroke: #000000; stroke-width: 0.8; stroke-linejoin: miter; stroke-linecap: square"/>
   </g>
   <g id="patch_4">
    <path d="M 608.14375 354.958125 
L 608.14375 22.318125 
" style="fill: none; stroke: #000000; stroke-width: 0.8; stroke-linejoin: miter; stroke-linecap: square"/>
   </g>
   <g id="patch_5">
    <path d="M 50.14375 354.958125 
L 608.14375 354.958125 
" style="fill: none; stroke: #000000; stroke-width: 0.8; stroke-linejoin: miter; stroke-linecap: square"/>
   </g>
   <g id="patch_6">
    <path d="M 50.14375 22.318125 
L 608.14375 22.318125 
" style="fill: none; stroke: #000000; stroke-width: 0.8; stroke-linejoin: miter; stroke-linecap: square"/>
   </g>
   <g id="text_14">
    <!-- Q-values Distribution -->
    <g transform="translate(265.824063 16.318125) scale(0.12 -0.12)">
     <defs>
      <path id="DejaVuSans-20" transform="scale(0.015625)"/>
      <path id="DejaVuSans-72" d="M 2631 2963 
Q 2534 3019 2420 3045 
Q 2306 3072 2169 3072 
Q 1681 3072 1420 2755 
Q 1159 2438 1159 1844 
L 1159 0 
L 581 0 
L 581 3500 
L 1159 3500 
L 1159 2956 
Q 1341 3275 1631 3429 
Q 1922 3584 2338 3584 
Q 2397 3584 2469 3576 
Q 2541 3569 2628 3553 
L 2631 2963 
z
" transform="scale(0.015625)"/>
      <path id="DejaVuSans-62" d="M 3116 1747 
Q 3116 2381 2855 2742 
Q 2594 3103 2138 3103 
Q 1681 3103 1420 2742 
Q 1159 2381 1159 1747 
Q 1159 1113 1420 752 
Q 1681 391 2138 391 
Q 2594 391 2855 752 
Q 3116 1113 3116 1747 
z
M 1159 2969 
Q 1341 3281 1617 3432 
Q 1894 3584 2278 3584 
Q 2916 3584 3314 3078 
Q 3713 2572 3713 1747 
Q 3713 922 3314 415 
Q 2916 -91 2278 -91 
Q 1894 -91 1617 61 
Q 1341 213 1159 525 
L 1159 0 
L 581 0 
L 581 4863 
L 1159 4863 
L 1159 2969 
z
" transform="scale(0.015625)"/>
      <path id="DejaVuSans-6f" d="M 1959 3097 
Q 1497 3097 1228 2736 
Q 959 2375 959 1747 
Q 959 1119 1226 758 
Q 1494 397 1959 397 
Q 2419 397 2687 759 
Q 2956 1122 2956 1747 
Q 2956 2369 2687 2733 
Q 2419 3097 1959 3097 
z
M 1959 3584 
Q 2709 3584 3137 3096 
Q 3566 2609 3566 1747 
Q 3566 888 3137 398 
Q 2709 -91 1959 -91 
Q 1206 -91 779 398 
Q 353 888 353 1747 
Q 353 2609 779 3096 
Q 1206 3584 1959 3584 
z
" transform="scale(0.015625)"/>
     </defs>
     <use xlink:href="#DejaVuSans-51"/>
     <use xlink:href="#DejaVuSans-2d" x="81.460938"/>
     <use xlink:href="#DejaVuSans-76" x="114.919922"/>
     <use xlink:href="#DejaVuSans-61" x="174.099609"/>
     <use xlink:href="#DejaVuSans-6c" x="235.378906"/>
     <use xlink:href="#DejaVuSans-75" x="263.162109"/>
     <use xlink:href="#DejaVuSans-65" x="326.541016"/>
     <use xlink:href="#DejaVuSans-73" x="388.064453"/>
     <use xlink:href="#DejaVuSans-20" x="440.164062"/>
     <use xlink:href="#DejaVuSans-44" x="471.951172"/>
     <use xlink:href="#DejaVuSans-69" x="548.953125"/>
     <use xlink:href="#DejaVuSans-73" x="576.736328"/>
     <use xlink:href="#DejaVuSans-74" x="628.835938"/>
     <use xlink:href="#DejaVuSans-72" x="668.044922"/>
     <use xlink:href="#DejaVuSans-69" x="709.158203"/>
     <use xlink:href="#DejaVuSans-62" x="736.941406"/>
     <use xlink:href="#DejaVuSans-75" x="800.417969"/>
     <use xlink:href="#DejaVuSans-74" x="863.796875"/>
     <use xlink:href="#DejaVuSans-69" x="903.005859"/>
     <use xlink:href="#DejaVuSans-6f" x="930.789062"/>
     <use xlink:href="#DejaVuSans-6e" x="991.970703"/>
    </g>
   </g>
   <g id="legend_1">
    <g id="patch_7">
     <path d="M 504.201563 74.3525 
L 601.14375 74.3525 
Q 603.14375 74.3525 603.14375 72.3525 
L 603.14375 29.318125 
Q 603.14375 27.318125 601.14375 27.318125 
L 504.201563 27.318125 
Q 502.201563 27.318125 502.201563 29.318125 
L 502.201563 72.3525 
Q 502.201563 74.3525 504.201563 74.3525 
z
" style="fill: #ffffff; opacity: 0.8; stroke: #cccccc; stroke-linejoin: miter"/>
    </g>
    <g id="line2d_15">
     <path d="M 506.201563 35.416562 
L 516.201563 35.416562 
L 526.201563 35.416562 
" style="fill: none; stroke: #1f77b4; stroke-width: 1.5; stroke-linecap: square"/>
    </g>
    <g id="text_15">
     <!-- Normal -->
     <g transform="translate(534.201563 38.916562) scale(0.1 -0.1)">
      <defs>
       <path id="DejaVuSans-4e" d="M 628 4666 
L 1478 4666 
L 3547 763 
L 3547 4666 
L 4159 4666 
L 4159 0 
L 3309 0 
L 1241 3903 
L 1241 0 
L 628 0 
L 628 4666 
z
" transform="scale(0.015625)"/>
       <path id="DejaVuSans-6d" d="M 3328 2828 
Q 3544 3216 3844 3400 
Q 4144 3584 4550 3584 
Q 5097 3584 5394 3201 
Q 5691 2819 5691 2113 
L 5691 0 
L 5113 0 
L 5113 2094 
Q 5113 2597 4934 2840 
Q 4756 3084 4391 3084 
Q 3944 3084 3684 2787 
Q 3425 2491 3425 1978 
L 3425 0 
L 2847 0 
L 2847 2094 
Q 2847 2600 2669 2842 
Q 2491 3084 2119 3084 
Q 1678 3084 1418 2786 
Q 1159 2488 1159 1978 
L 1159 0 
L 581 0 
L 581 3500 
L 1159 3500 
L 1159 2956 
Q 1356 3278 1631 3431 
Q 1906 3584 2284 3584 
Q 2666 3584 2933 3390 
Q 3200 3197 3328 2828 
z
" transform="scale(0.015625)"/>
      </defs>
      <use xlink:href="#DejaVuSans-4e"/>
      <use xlink:href="#DejaVuSans-6f" x="74.804688"/>
      <use xlink:href="#DejaVuSans-72" x="135.986328"/>
      <use xlink:href="#DejaVuSans-6d" x="175.349609"/>
      <use xlink:href="#DejaVuSans-61" x="272.761719"/>
      <use xlink:href="#DejaVuSans-6c" x="334.041016"/>
     </g>
    </g>
    <g id="line2d_16">
     <path d="M 506.201563 50.094687 
L 516.201563 50.094687 
L 526.201563 50.094687 
" style="fill: none; stroke: #ff7f0e; stroke-width: 1.5; stroke-linecap: square"/>
    </g>
    <g id="text_16">
     <!-- Osteopenia -->
     <g transform="translate(534.201563 53.594687) scale(0.1 -0.1)">
      <defs>
       <path id="DejaVuSans-4f" d="M 2522 4238 
Q 1834 4238 1429 3725 
Q 1025 3213 1025 2328 
Q 1025 1447 1429 934 
Q 1834 422 2522 422 
Q 3209 422 3611 934 
Q 4013 1447 4013 2328 
Q 4013 3213 3611 3725 
Q 3209 4238 2522 4238 
z
M 2522 4750 
Q 3503 4750 4090 4092 
Q 4678 3434 4678 2328 
Q 4678 1225 4090 567 
Q 3503 -91 2522 -91 
Q 1538 -91 948 565 
Q 359 1222 359 2328 
Q 359 3434 948 4092 
Q 1538 4750 2522 4750 
z
" transform="scale(0.015625)"/>
       <path id="DejaVuSans-70" d="M 1159 525 
L 1159 -1331 
L 581 -1331 
L 581 3500 
L 1159 3500 
L 1159 2969 
Q 1341 3281 1617 3432 
Q 1894 3584 2278 3584 
Q 2916 3584 3314 3078 
Q 3713 2572 3713 1747 
Q 3713 922 3314 415 
Q 2916 -91 2278 -91 
Q 1894 -91 1617 61 
Q 1341 213 1159 525 
z
M 3116 1747 
Q 3116 2381 2855 2742 
Q 2594 3103 2138 3103 
Q 1681 3103 1420 2742 
Q 1159 2381 1159 1747 
Q 1159 1113 1420 752 
Q 1681 391 2138 391 
Q 2594 391 2855 752 
Q 3116 1113 3116 1747 
z
" transform="scale(0.015625)"/>
      </defs>
      <use xlink:href="#DejaVuSans-4f"/>
      <use xlink:href="#DejaVuSans-73" x="78.710938"/>
      <use xlink:href="#DejaVuSans-74" x="130.810547"/>
      <use xlink:href="#DejaVuSans-65" x="170.019531"/>
      <use xlink:href="#DejaVuSans-6f" x="231.542969"/>
      <use xlink:href="#DejaVuSans-70" x="292.724609"/>
      <use xlink:href="#DejaVuSans-65" x="356.201172"/>
      <use xlink:href="#DejaVuSans-6e" x="417.724609"/>
      <use xlink:href="#DejaVuSans-69" x="481.103516"/>
      <use xlink:href="#DejaVuSans-61" x="508.886719"/>
     </g>
    </g>
    <g id="line2d_17">
     <path d="M 506.201563 64.772812 
L 516.201563 64.772812 
L 526.201563 64.772812 
" style="fill: none; stroke: #2ca02c; stroke-width: 1.5; stroke-linecap: square"/>
    </g>
    <g id="text_17">
     <!-- Osteoporosis -->
     <g transform="translate(534.201563 68.272812) scale(0.1 -0.1)">
      <use xlink:href="#DejaVuSans-4f"/>
      <use xlink:href="#DejaVuSans-73" x="78.710938"/>
      <use xlink:href="#DejaVuSans-74" x="130.810547"/>
      <use xlink:href="#DejaVuSans-65" x="170.019531"/>
      <use xlink:href="#DejaVuSans-6f" x="231.542969"/>
      <use xlink:href="#DejaVuSans-70" x="292.724609"/>
      <use xlink:href="#DejaVuSans-6f" x="356.201172"/>
      <use xlink:href="#DejaVuSans-72" x="417.382812"/>
      <use xlink:href="#DejaVuSans-6f" x="456.246094"/>
      <use xlink:href="#DejaVuSans-73" x="517.427734"/>
      <use xlink:href="#DejaVuSans-69" x="569.527344"/>
      <use xlink:href="#DejaVuSans-73" x="597.310547"/>
     </g>
    </g>
   </g>
  </g>
 </g>
 <defs>
  <clipPath id="p4a00510fdc">
   <rect x="50.14375" y="22.318125" width="558" height="332.64"/>
  </clipPath>
 </defs>
</svg>
